<svg width="16" height="16" viewBox="0 0 16 16" fill="none" xmlns="http://www.w3.org/2000/svg">
<path d="M8 16C12.4183 16 16 12.4183 16 8C16 7.08667 15.8469 6.20909 15.5651 5.39151L13.9826 8.02899C13.6212 8.6314 12.9701 9 12.2676 9H11V13H9L8.99861 13L7.5662 13C7.21493 13 6.88942 12.8157 6.70869 12.5145L5.24998 10.0833L3.79121 12.5145C3.61049 12.8157 3.28497 13 2.9337 13L1.75464 13C3.22076 14.8289 5.47362 16 8 16Z" fill="#76FF33"/>
<path d="M11 8.8334L14.3891 3.18479C12.9289 1.25033 10.6105 0 8 0C5.47362 0 3.22075 1.17107 1.75463 3H2.93381C3.28507 3 3.61058 3.1843 3.7913 3.48551L4.84693 5.24491L3.57143 7.28571L1.33987 3.56645C0.493411 4.83549 0 6.36012 0 8C0 9.63988 0.493411 11.1645 1.33987 12.4335L6.7087 3.4855C6.88942 3.1843 7.21493 3 7.56619 3H13.5L12.25 5H11V8.8334Z" fill="#76FF33"/>
<path d="M9 12.1668L7.09996 9H5.89996L9 3.83332V12.1668Z" fill="#76FF33"/>
</svg>
